<svg xmlns="http://www.w3.org/2000/svg" viewBox="0 0 64 64" fill="none">
  <path fill="#fff" d="M54.1 9.8A31.6 31.6 0 0 0 32 .6C14.8.6.7 14.7.7 31.9c0 5.5 1.4 10.8 4.2 15.4L.5 63.4l16.5-4.3a31.2 31.2 0 0 0 15 3.8h.1c17.2 0 31.3-14.1 31.3-31.3 0-8.4-3.3-16.3-9.3-22ZM32 57.6h-.1c-4.7 0-9.4-1.3-13.4-3.8l-1-.6-9.8 2.6 2.6-9.5-.7-1c-3-4.3-4.5-9.3-4.5-14.4 0-14.7 12-26.7 26.8-26.7 7.1 0 13.8 2.8 18.9 7.8a26.5 26.5 0 0 1 7.8 18.9c0 14.8-12 26.7-26.7 26.7Z"/>
  <path fill="#fff" d="M46.8 38.1c-.8-.4-4.7-2.3-5.5-2.5-.7-.3-1.3-.4-1.9.4-.5.8-2.1 2.5-2.5 3-.5.5-.9.6-1.7.2-.8-.4-3.4-1.2-6.4-4-2.4-2.1-4-4.7-4.5-5.5-.5-.8 0-1.1.3-1.5.3-.3.8-.9 1.2-1.3.4-.4.5-.8.8-1.3.3-.5.1-1-.1-1.5-.2-.4-1.9-4.5-2.6-6.2-.7-1.6-1.3-1.4-1.9-1.4h-1.6c-.5 0-1.5.2-2.3 1-.8.8-3 2.9-3 7 0 4.1 3 8 3.4 8.6.4.5 5.9 9 14.3 12.3 2 .9 3.6 1.4 4.8 1.8 2 .6 3.8.5 5.2.3 1.6-.2 4.7-1.9 5.4-3.7.7-1.8.7-3.4.5-3.7-.2-.4-.7-.6-1.5-1Z"/>
</svg>
